<svg xmlns="http://www.w3.org/2000/svg" xml:space="preserve" style="fill-rule:evenodd;clip-rule:evenodd;stroke-linejoin:round;stroke-miterlimit:2" viewBox="0 0 32 32" id="spending-tracker">
  <g transform="translate(-96 -144)">
    <g transform="matrix(1.66667 0 0 .83333 -554.667 145.667)">
      <g id="Outline">
        <path d="M406.6,31.6C406.6,32.555 406.41,33.47 406.073,34.146C405.735,34.821 405.277,35.2 404.8,35.2L392.8,35.2C392.323,35.2 391.865,34.821 391.527,34.146C391.19,33.47 391,32.555 391,31.6L391,22C391,21.045 391.19,20.13 391.527,19.454C391.865,18.779 392.323,18.4 392.8,18.4L393.4,18.4C393.4,17.445 393.59,16.53 393.927,15.854C394.119,15.471 394.349,15.183 394.6,15.006L394.6,10.6C394.417,10.326 394.265,9.966 394.158,9.542C393.904,8.525 393.959,7.309 394.3,6.4L395.2,4C395.483,3.245 395.928,2.8 396.4,2.8C396.872,2.8 397.317,3.245 397.6,4L398.5,6.4C398.841,7.309 398.896,8.525 398.642,9.542C398.535,9.966 398.383,10.326 398.2,10.6L398.2,14.8L399.4,14.8L399.4,7C399.217,6.726 399.065,6.366 398.958,5.942C398.704,4.925 398.759,3.709 399.1,2.8L400,0.4C400.283,-0.355 400.728,-0.8 401.2,-0.8C401.672,-0.8 402.117,-0.355 402.4,0.4L403.3,2.8C403.641,3.709 403.696,4.925 403.442,5.942C403.335,6.366 403.183,6.726 403,7L403,14.8L404.2,14.8L404.2,10.6C404.017,10.326 403.865,9.966 403.758,9.542C403.504,8.525 403.559,7.309 403.9,6.4L404.8,4C405.083,3.245 405.528,2.8 406,2.8C406.472,2.8 406.917,3.245 407.2,4L408.1,6.4C408.441,7.309 408.496,8.525 408.242,9.542C408.135,9.966 407.983,10.326 407.8,10.6L407.8,15.006C408.051,15.183 408.281,15.471 408.473,15.854C408.81,16.53 409,17.445 409,18.4L409,28C409,28.955 408.81,29.87 408.473,30.546C408.135,31.221 407.677,31.6 407.2,31.6L406.6,31.6ZM393.4,20.8L392.8,20.8C392.641,20.8 392.488,20.926 392.376,21.151C392.263,21.377 392.2,21.682 392.2,22L392.2,31.6C392.2,31.918 392.263,32.223 392.376,32.449C392.488,32.674 392.641,32.8 392.8,32.8L404.8,32.8C404.959,32.8 405.112,32.674 405.224,32.449C405.337,32.223 405.4,31.918 405.4,31.6C405.4,31.6 396.367,31.6 396.36,31.6L395.2,31.6C394.723,31.6 394.265,31.221 393.927,30.546C393.59,29.87 393.4,28.955 393.4,28L393.4,20.8ZM395.2,17.2C395.041,17.2 394.888,17.326 394.776,17.551C394.675,17.753 394.614,18.018 394.602,18.299C394.695,18.364 394.796,18.4 394.9,18.4C395.292,18.4 395.625,17.899 395.749,17.2L395.2,17.2ZM395.8,11.2L395.8,14.8C395.8,14.8 396.374,14.8 396.381,14.8L397,14.8L397,11.2L395.8,11.2ZM397.406,8.761C397.475,8.709 397.534,8.606 397.568,8.468C397.619,8.265 397.608,8.022 397.54,7.84L396.64,5.44C396.583,5.289 396.494,5.2 396.4,5.2C396.306,5.2 396.217,5.289 396.16,5.44L395.26,7.84C395.192,8.022 395.181,8.265 395.232,8.468C395.266,8.606 395.325,8.709 395.394,8.761C395.398,8.764 395.402,8.767 395.406,8.77C395.436,8.789 395.467,8.8 395.5,8.8L397.3,8.8C397.333,8.8 397.364,8.789 397.394,8.77C397.398,8.767 397.402,8.764 397.406,8.761ZM405.421,17.2L396.979,17.2C396.833,19.234 395.957,20.8 394.9,20.8C394.798,20.8 394.698,20.785 394.6,20.757L394.6,25.643C394.698,25.615 394.798,25.6 394.9,25.6C395.957,25.6 396.833,27.166 396.979,29.2L405.421,29.2C405.567,27.166 406.443,25.6 407.5,25.6C407.602,25.6 407.702,25.615 407.8,25.643L407.8,20.757C407.702,20.785 407.602,20.8 407.5,20.8C406.443,20.8 405.567,19.234 405.421,17.2ZM400.6,7.6L400.6,14.8L401.8,14.8L401.8,7.6L400.6,7.6ZM402.206,5.161C402.275,5.109 402.334,5.006 402.368,4.868C402.419,4.665 402.408,4.422 402.34,4.24L401.44,1.84C401.383,1.689 401.294,1.6 401.2,1.6C401.106,1.6 401.017,1.689 400.96,1.84L400.06,4.24C399.992,4.422 399.981,4.665 400.032,4.868C400.066,5.006 400.125,5.109 400.194,5.161C400.198,5.164 400.202,5.167 400.206,5.17C400.236,5.189 400.267,5.2 400.3,5.2L402.1,5.2C402.132,5.2 402.164,5.19 402.194,5.17C402.198,5.167 402.202,5.164 402.206,5.161ZM405.4,11.2L405.4,14.8C405.4,14.8 406.033,14.8 406.04,14.8L406.6,14.8L406.6,11.2L405.4,11.2ZM407.006,8.761C407.075,8.709 407.134,8.606 407.168,8.468C407.219,8.265 407.208,8.022 407.14,7.84L406.24,5.44C406.183,5.289 406.094,5.2 406,5.2C405.906,5.2 405.817,5.289 405.76,5.44L404.86,7.84C404.792,8.022 404.781,8.265 404.832,8.468C404.866,8.606 404.925,8.709 404.994,8.761C404.998,8.764 405.002,8.767 405.006,8.77C405.036,8.789 405.067,8.8 405.1,8.8L406.9,8.8C406.933,8.8 406.964,8.789 406.994,8.77C406.998,8.767 407.002,8.764 407.006,8.761ZM406.651,29.2L407.2,29.2C407.359,29.2 407.512,29.074 407.624,28.849C407.725,28.647 407.786,28.382 407.798,28.101C407.705,28.036 407.604,28 407.5,28C407.108,28 406.775,28.501 406.651,29.2ZM407.798,18.299C407.786,18.018 407.725,17.753 407.624,17.551C407.512,17.326 407.359,17.2 407.2,17.2L406.651,17.2C406.775,17.899 407.108,18.4 407.5,18.4C407.604,18.4 407.705,18.364 407.798,18.299ZM394.602,28.101C394.614,28.382 394.675,28.647 394.776,28.849C394.888,29.074 395.041,29.2 395.2,29.2L395.749,29.2C395.625,28.501 395.292,28 394.9,28C394.796,28 394.695,28.036 394.602,28.101ZM398.357,24.4L397.6,24.4C397.269,24.4 397,23.862 397,23.2C397,22.538 397.269,22 397.6,22L398.357,22C398.477,21.558 398.666,21.145 398.925,20.792C399.439,20.09 400.265,19.6 401.2,19.6C402.135,19.6 402.961,20.09 403.475,20.792C403.734,21.145 403.923,21.558 404.043,22L404.8,22C405.131,22 405.4,22.538 405.4,23.2C405.4,23.862 405.131,24.4 404.8,24.4L404.043,24.4C403.923,24.842 403.734,25.255 403.475,25.608C402.961,26.31 402.135,26.8 401.2,26.8C400.265,26.8 399.439,26.31 398.925,25.608C398.666,25.255 398.477,24.842 398.357,24.4ZM403,23.2C403,23.105 402.956,23.04 402.916,22.961C402.841,22.817 402.742,22.691 402.628,22.577C402.263,22.211 401.757,22 401.2,22C400.643,22 400.137,22.211 399.772,22.577C399.658,22.691 399.559,22.817 399.484,22.961C399.444,23.04 399.4,23.105 399.4,23.2C399.4,23.295 399.444,23.36 399.484,23.439C399.559,23.583 399.658,23.709 399.772,23.823C400.137,24.189 400.643,24.4 401.2,24.4C401.757,24.4 402.263,24.189 402.628,23.823C402.742,23.709 402.841,23.583 402.916,23.439C402.956,23.36 403,23.295 403,23.2Z"></path>
      </g>
    </g>
  </g>
</svg>
