<svg xmlns="http://www.w3.org/2000/svg" xml:space="preserve" id="monthly-bill" x="0" y="0" style="enable-background:new 0 0 512 512" version="1.0" viewBox="0 0 512 512">
  <path d="M22.5,146.776h409.744V97.359c0-14.705-12.032-26.738-26.737-26.738h-22.572v18.443
	c0,16.327-13.334,29.661-29.661,29.661s-29.661-13.334-29.661-29.661V70.621h-66.579v18.443c0,16.327-13.334,29.661-29.661,29.661
	c-16.327,0-29.661-13.334-29.661-29.661V70.621h-66.579v18.443c0,16.318-13.405,29.661-29.661,29.661
	c-16.327,0-29.661-13.334-29.661-29.661V70.621H49.238c-14.706,0-26.737,12.032-26.737,26.738V146.776L22.5,146.776z
	 M318.844,398.077c-3.59,0-6.5-2.91-6.5-6.5c0-3.59,2.91-6.5,6.5-6.5h44.602v-54.94h-10.632c-22.272,0-40.47-18.198-40.47-40.47
	c0-22.272,18.198-40.47,40.47-40.47h10.632v-24.078c0-3.59,2.91-6.5,6.5-6.5c3.59,0,6.5,2.91,6.5,6.5v24.078h44.603
	c3.59,0,6.5,2.91,6.5,6.5s-2.91,6.5-6.5,6.5h-44.603v54.939h10.559c22.298,0,40.544,18.217,40.544,40.47
	c0,22.272-18.198,40.47-40.47,40.47h-10.632v24.078c0,3.59-2.91,6.5-6.5,6.5c-3.59,0-6.5-2.91-6.5-6.5v-24.078H318.844
	L318.844,398.077z M376.446,385.077h10.632c24.165,0,36.802-29.513,19.404-46.874c-4.988-4.977-11.878-8.066-19.477-8.066h-10.559
	V385.077L376.446,385.077z M352.814,317.137h10.632v-54.939h-10.632c-24.104,0-36.835,29.426-19.396,46.865
	C338.4,314.045,345.267,317.137,352.814,317.137L352.814,317.137z M261.845,178.819c-13.477,0-24.454,10.976-24.454,24.453v290.934
	c0.004,6.03,7.671,8.765,11.502,4.113l19.026-23.068l20.457,24.803c2.57,3.167,7.425,3.283,10.067,0.076l20.519-24.879
	l20.457,24.803c2.57,3.167,7.425,3.283,10.067,0.076l20.519-24.879l20.457,24.803c2.57,3.167,7.425,3.283,10.067,0.076
	l20.519-24.879l20.457,24.803c2.57,3.167,7.425,3.283,10.067,0.076l20.519-24.879l18.557,22.499
	c4.148,5.49,11.852,2.271,11.852-3.689v-290.79c0-13.477-10.977-24.453-24.453-24.453H261.845L261.845,178.819z M478.047,191.819
	H261.845c-6.3,0-11.453,5.153-11.453,11.453v272.875l13.415-16.076c2.762-2.272,6.844-1.874,9.115,0.889l20.519,24.879
	c2.528-3.065,20.241-24.807,21.408-25.767c2.762-2.272,6.844-1.874,9.115,0.889l20.52,24.879
	c2.528-3.065,20.24-24.807,21.408-25.767c2.762-2.272,6.844-1.874,9.115,0.889l20.519,24.879
	c2.527-3.063,20.243-24.809,21.408-25.767c2.762-2.272,6.844-1.874,9.115,0.889l20.519,24.879
	c2.527-3.063,20.243-24.809,21.408-25.767c2.762-2.272,6.844-1.874,9.115,0.889l12.407,15.042V203.272
	C489.5,196.972,484.346,191.819,478.047,191.819L478.047,191.819z M432.244,159.776H22.5V388.19
	c0,14.706,12.032,26.738,26.737,26.738h173.481c3.59,0,6.5,2.91,6.5,6.5c0,3.59-2.91,6.5-6.5,6.5H49.238
	c-21.856,0-39.738-17.882-39.738-39.738V97.359c0-21.856,17.882-39.738,39.738-39.738H71.81V39.178
	c0-16.327,13.334-29.661,29.661-29.661c16.327,0,29.661,13.334,29.661,29.661v18.443h66.579V39.178
	c0-16.327,13.334-29.661,29.661-29.661c16.327,0,29.661,13.334,29.661,29.661v18.443h66.579V39.178
	c0-16.327,13.334-29.661,29.661-29.661s29.661,13.334,29.661,29.661v18.443h22.572c21.856,0,39.738,17.882,39.738,39.738v66.787
	c0,3.59-2.91,6.5-6.5,6.5c-3.59,0-6.5-2.91-6.5-6.5V159.776L432.244,159.776z M113.233,27.416c3.023,3.023,4.899,7.187,4.899,11.762
	v49.886c0,5.664-2.779,10.71-7.385,13.822c-11.056,7.469-25.937-0.628-25.937-13.822V39.178
	C84.81,24.58,102.642,16.826,113.233,27.416L113.233,27.416z M365.035,27.416c3.023,3.023,4.899,7.187,4.899,11.762v49.886
	c0,4.575-1.877,8.739-4.899,11.762c-10.59,10.59-28.423,2.837-28.423-11.762V39.178C336.613,24.58,354.444,16.826,365.035,27.416
	L365.035,27.416z M239.134,27.416c3.023,3.023,4.899,7.187,4.899,11.762v49.886c0,4.575-1.876,8.739-4.899,11.762
	c-10.589,10.59-28.422,2.837-28.422-11.762V39.178C210.712,24.58,228.544,16.826,239.134,27.416z" style="fill-rule:evenodd;clip-rule:evenodd"></path>
</svg>
