<svg xmlns="http://www.w3.org/2000/svg" id="observation" viewBox="0 0 64 64">
  <path d="m41,2c-11.58,0-21,9.42-21,21,0,4.71,1.58,9.05,4.2,12.55l-4.49,4.49c-1.11-.5-2.51-.32-3.4.57l-5.66,5.66-1.41,1.41-1.41,1.41-1.41,1.41-3.54,3.54c-.57.57-.88,1.32-.88,2.12s.31,1.55.88,2.12l2.83,2.83c.58.58,1.35.88,2.12.88s1.54-.29,2.12-.88l3.54-3.54h0s1.41-1.41,1.41-1.41h0s8.49-8.49,8.49-8.49c.92-.92,1.1-2.29.58-3.4l4.49-4.49c3.51,2.63,7.84,4.2,12.55,4.2,11.58,0,21-9.42,21-21S52.58,2,41,2ZM8.54,59.71c-.39.39-1.02.39-1.41,0l-2.83-2.83c-.19-.19-.29-.44-.29-.71s.1-.52.29-.71l3.54-3.54,4.24,4.24-3.54,3.54Zm4.95-4.95l-4.24-4.24,1.41-1.41,4.24,4.24-1.41,1.41Zm8.49-8.49l-5.66,5.66-4.24-4.24,5.66-5.66c.19-.19.44-.29.71-.29s.52.1.71.29l2.83,2.83c.39.39.39,1.03,0,1.42Zm.71-3.54l-1.42-1.42,4.22-4.22c.45.49.92.97,1.42,1.42l-4.22,4.22Zm18.32-.74c-10.48,0-19-8.52-19-19S30.52,4,41,4s19,8.52,19,19-8.52,19-19,19Z"></path>
  <path d="m41,6c-9.37,0-17,7.63-17,17s7.63,17,17,17,17-7.63,17-17-7.63-17-17-17Zm0,32c-8.27,0-15-6.73-15-15s6.73-15,15-15,15,6.73,15,15-6.73,15-15,15Z"></path>
  <path d="m53.89,22.55c-.17-.35-4.37-8.55-12.89-8.55s-12.72,8.2-12.89,8.55c-.14.28-.14.61,0,.89.17.35,4.37,8.55,12.89,8.55s12.72-8.2,12.89-8.55c.14-.28.14-.61,0-.89Zm-12.89,7.45c-6.21,0-9.89-5.39-10.85-7,.96-1.61,4.64-7,10.85-7s9.89,5.39,10.85,7c-.96,1.61-4.64,7-10.85,7Z"></path>
  <path d="m41,18c-2.76,0-5,2.24-5,5s2.24,5,5,5,5-2.24,5-5-2.24-5-5-5Zm0,8c-1.65,0-3-1.35-3-3s1.35-3,3-3,3,1.35,3,3-1.35,3-3,3Z"></path>
</svg>
