<svg xmlns="http://www.w3.org/2000/svg" viewBox="0 0 64 64" id="savings">
  <path d="M58.205 40.95a40.908 40.908 0 0 1-10.995-4.463c-1.755-6.195-5.56-11.731-10.16-14.858.359-.545.172-2.25.215-2.878a1.995 1.995 0 0 0-1.096-1.774l2.609-8.493a2.013 2.013 0 0 0-2.11-2.578l-6.387.64-1.615-3.23a2.012 2.012 0 0 0-2.898-.769L18.325 7.51a1.987 1.987 0 0 0-.806 2.237l2.296 7.666a1.974 1.974 0 0 0-.55 1.339c.043.634-.144 2.323.214 2.877-7.57 5.13-12.66 16.463-10.84 26.123H7.264a3.01 3.01 0 0 0-2.22 5 2.989 2.989 0 0 0 0 4 3.01 3.01 0 0 0 2.22 5h13a2.97 2.97 0 0 0 1.897-.695c9.094 2.356 20.718-1.085 24.222-8.887a1.981 1.981 0 0 0 1.49-.3l10.977-7.318a2.007 2.007 0 0 0-.646-3.602Zm-36.94-20.2v-1.993c.005-.018 13.608 0 13.617-.006h.383l.012 1.993c-.037.02-13.964 0-14.012.007ZM36.866 7.897l-2.25 7.322-3.378-6.757Zm-9.989-3.685 6.27 12.54H21.704l-2.27-7.578ZM7.265 49.751h13a1 1 0 0 1 0 2h-13a1 1 0 0 1 0-2Zm-1 5a1.001 1.001 0 0 1 1-1h13a1 1 0 0 1 0 2h-13a1.001 1.001 0 0 1-1-1Zm1 5a1 1 0 0 1 0-2h13a1 1 0 0 1 0 2Zm21 0a24.762 24.762 0 0 1-5.05-.506 2.935 2.935 0 0 0-.73-2.494 2.989 2.989 0 0 0 0-4 3.01 3.01 0 0 0-2.22-5h-9.576c-1.985-9.222 3.35-20.577 10.758-25H35.09c4.03 2.392 7.502 6.856 9.467 12.062a41.652 41.652 0 0 1-8.061-7.136 2.007 2.007 0 0 0-2.589-.392l-12.284 7.758a2.016 2.016 0 0 0-.445 3.007c7.953 9.072 18.469 12.528 23.192 13.684-2.799 5.112-8.59 8.017-16.104 8.017Zm18.505-9.545c-2.43-.434-15.018-3.126-24.08-13.472l12.284-7.758a44.433 44.433 0 0 0 10.775 8.97 43.044 43.044 0 0 0 11.992 4.941Z"></path>
  <path d="M41.963 36.725a30.097 30.097 0 0 1-4.986-4.08c-.719-.763-1.46.203-2.256.165-1.063.042-1.416-1.122-2.375-.545l-4.587 2.897c-.543.313-.478.95-.39 1.471a1.802 1.802 0 0 1-.45 1.18 1 1 0 0 0 .09 1.395 42.8 42.8 0 0 0 16.814 9.016.998.998 0 0 0 .854-.156 2.872 2.872 0 0 1 2.593-.406 1 1 0 0 0 .895-.136l4.143-2.963c1.139-.904-.438-1.825-.339-2.891a.999.999 0 0 0-.757-.932 30.256 30.256 0 0 1-9.249-4.015Zm-7.035 5.19c-.706-2.628 5.742-4.803 6.882-2.02.656 2.791-5.906 4.697-6.882 2.02Zm-5.562-5.402 3.487-2.202a3.835 3.835 0 0 0 3.217.25q1.138 1.105 2.377 2.088c-2.655.214-5.417 2.36-5.55 4.532a36.144 36.144 0 0 1-3.911-2.9 3.765 3.765 0 0 0 .38-1.768Zm18.02 9.11a4.86 4.86 0 0 0-3.46.551c-1.106-.319-2.48-.77-4.015-1.385 2.457-.854 4.038-2.772 3.944-4.69a32.374 32.374 0 0 0 6.21 2.41 4.453 4.453 0 0 0 .324.967Z"></path>
</svg>
