<svg xmlns="http://www.w3.org/2000/svg" width="64" height="64" fill="none" viewBox="0 0 64 64" id="coin">
  <path stroke="#000" stroke-linecap="round" stroke-linejoin="round" stroke-width="1.5" d="M6.75311 29.4218L6.74988 34.5089C6.74625 35.925 10.5152 37.0749 15.1648 37.0771C19.815 37.0793 23.5851 35.9326 23.5835 34.5163L23.5866 29.4292C23.583 30.8447 19.8157 31.9902 15.168 31.988C10.5209 31.9858 6.75387 30.837 6.75311 29.4218Z"></path>
  <path stroke="#000" stroke-linecap="round" stroke-linejoin="round" stroke-width="1.5" d="M6.75311 24.3327 6.74988 29.4198C6.74625 30.8359 10.5152 31.9858 15.1648 31.988 19.815 31.9902 23.5851 30.8435 23.5835 29.4272L23.5866 24.3401C23.583 25.7556 19.8157 26.9012 15.168 26.8989 10.5209 26.8967 6.75387 25.748 6.75311 24.3327ZM6.75311 34.5109 6.74988 39.598C6.74625 41.0141 10.5152 42.164 15.1648 42.1662 19.815 42.1684 23.5851 41.0217 23.5835 39.6054L23.5866 34.5183C23.583 35.9338 19.8157 37.0793 15.168 37.0771 10.5209 37.0749 6.75387 35.9261 6.75311 34.5109ZM23.5882 27.4282 23.5851 32.5153C23.5815 33.9314 27.3502 35.0813 31.9999 35.0835 36.6501 35.0857 40.4201 33.939 40.4186 32.5227L40.4218 27.4356C40.4182 28.8511 36.6508 29.9966 32.0031 29.9944 27.3559 29.9922 23.5889 28.8434 23.5882 27.4282ZM40.638 18.6525C42.1942 19.1183 43.1595 19.7666 43.1592 20.4832 43.1586 21.8988 39.39 23.0448 34.7417 23.0428 32.9157 23.0419 31.2257 22.8641 29.8466 22.5627"></path>
  <path stroke="#000" stroke-linecap="round" stroke-linejoin="round" stroke-width="1.5" d="M26.325 21.948 26.323 25.5628C26.3194 26.9789 30.0882 28.1288 34.7378 28.131 39.3881 28.1332 43.1581 26.9865 43.1565 25.5702L43.1597 20.4831C43.1561 21.8986 39.3887 23.0442 34.741 23.0419 33.0148 23.0411 31.4101 22.8821 30.0747 22.61M23.5882 38.3294 23.5851 43.4165C23.5815 44.8325 27.3502 45.9825 31.9999 45.9847 36.6501 45.9869 40.4201 44.8402 40.4186 43.4239L40.4218 38.3367C40.4182 39.7522 36.6508 40.8978 32.0031 40.8955 27.3559 40.8934 23.5889 39.7446 23.5882 38.3294ZM23.5851 53.5947 23.5819 58.6818C23.5783 60.0979 27.3472 61.2478 31.9968 61.25 36.6471 61.2522 40.4171 60.1055 40.4155 58.6892L40.4186 53.6021C40.415 55.0176 36.6478 56.1631 32 56.1609 27.3529 56.1587 23.5859 55.0099 23.5851 53.5947Z"></path>
  <path stroke="#000" stroke-linecap="round" stroke-linejoin="round" stroke-width="1.5" d="M23.6846 14.9929 23.6814 20.0801C23.6778 21.4961 27.4465 22.6461 32.0962 22.6482 36.7464 22.6504 40.5165 21.5037 40.5149 20.0875L40.5181 15.0003C40.5145 16.4158 36.7472 17.5614 32.0995 17.5591 27.4524 17.5569 23.6853 16.4082 23.6846 14.9929ZM40.4214 27.4356C40.4208 28.8512 36.6522 29.9972 32.0038 29.9952 27.3556 29.9931 23.5877 28.8439 23.5883 27.4282 23.5886 26.6811 24.6383 26.0092 26.313 25.5414M23.5882 43.4185 23.5851 48.5056C23.5815 49.9217 27.3502 51.0716 31.9999 51.0738 36.6501 51.076 40.4201 49.9293 40.4186 48.513L40.4218 43.4259C40.4182 44.8414 36.6508 45.9869 32.0031 45.9847 27.3559 45.9825 23.5889 44.8337 23.5882 43.4185Z"></path>
  <path stroke="#000" stroke-linecap="round" stroke-linejoin="round" stroke-width="1.5" d="M23.5882 48.5076 23.5851 53.5947C23.5815 55.0108 27.3502 56.1607 31.9999 56.1629 36.6501 56.1651 40.4201 55.0184 40.4186 53.6021L40.4218 48.515C40.4182 49.9305 36.6508 51.076 32.0031 51.0738 27.3559 51.0716 23.5889 49.9228 23.5882 48.5076ZM40.42 40.5508 40.4169 45.6379C40.4132 47.054 44.182 48.2039 48.8317 48.2061 53.4819 48.2083 57.252 47.0616 57.2503 45.6453L57.2535 40.5582C57.2498 41.9737 53.4826 43.1192 48.8349 43.117 44.1878 43.1148 40.4207 41.966 40.42 40.5508Z"></path>
  <path stroke="#000" stroke-linecap="round" stroke-linejoin="round" stroke-width="1.5" d="M40.42 35.4617 40.4169 40.5488C40.4132 41.9649 44.182 43.1148 48.8317 43.117 53.4819 43.1192 57.252 41.9725 57.2503 40.5562L57.2535 35.4691C57.2498 36.8846 53.4826 38.0301 48.8349 38.0279 44.1878 38.0257 40.4207 36.8769 40.42 35.4617ZM40.4202 45.7816 40.4169 50.8688C40.4132 52.2848 44.182 53.4348 48.8317 53.4369 53.4819 53.4391 57.252 52.2924 57.2503 50.8762L57.2535 45.789M6.75311 39.5991 6.74988 44.6862C6.74625 46.1023 10.5152 47.2522 15.1648 47.2544 19.815 47.2566 23.5851 46.1099 23.5835 44.6936L23.5866 39.6065C23.583 41.022 19.8157 42.1675 15.168 42.1653 10.5209 42.1631 6.75387 41.0143 6.75311 39.5991ZM40.5177 15.0001C40.5174 15.6799 39.6304 16.3314 38.0518 16.8115 36.4732 17.2915 34.3324 17.5606 32.1002 17.5596 29.868 17.5586 27.7273 17.2876 26.1491 16.8062 24.5709 16.3248 23.6844 15.6725 23.6847 14.9927 23.685 14.3129 24.5719 13.6613 26.1505 13.1813 27.7291 12.7013 29.87 12.4321 32.1022 12.4331 34.3344 12.4341 36.4751 12.7051 38.0533 13.1865 39.6315 13.6679 40.518 14.3202 40.5177 15.0001Z"></path>
  <path stroke="#000" stroke-linecap="round" stroke-linejoin="round" stroke-width="1.5" d="M6.75311 44.6895L6.74988 49.7766C6.74625 51.1927 10.5152 52.3426 15.1648 52.3448C19.815 52.347 23.5851 51.2003 23.5835 49.784L23.5866 44.6969C23.583 46.1124 19.8157 47.2579 15.168 47.2557C10.5209 47.2535 6.75387 46.1047 6.75311 44.6895Z"></path>
  <path stroke="#000" stroke-linecap="round" stroke-linejoin="round" stroke-width="1.5" d="M6.75311 49.7777 6.74988 54.8648C6.74625 56.2808 10.5152 57.4308 15.1648 57.433 19.815 57.4352 23.5851 56.2885 23.5835 54.8722L23.5866 49.7851C23.583 51.2005 19.8157 52.3461 15.168 52.3439 10.5209 52.3417 6.75387 51.1929 6.75311 49.7777ZM40.4202 50.8005 40.4169 55.8877C40.4132 57.3037 44.182 58.4537 48.8317 58.4558 53.4819 58.458 57.252 57.3113 57.2503 55.8951L57.2535 50.8079M57.2532 30.3159C57.2529 30.9957 56.3659 31.6473 54.7873 32.1273 53.2087 32.6073 51.0678 32.8764 48.8356 32.8754 46.6034 32.8744 44.4628 32.6034 42.8846 32.122 41.3063 31.6407 40.4198 30.9883 40.42 30.3085 40.4203 29.6287 41.3073 28.9771 42.8859 28.4971 44.4645 28.0171 46.6054 27.7479 48.8376 27.7489 51.0698 27.7499 53.2104 28.0209 54.7887 28.5023 56.3669 28.9837 57.2534 29.636 57.2532 30.3159Z"></path>
  <path stroke="#000" stroke-linecap="round" stroke-linejoin="round" stroke-width="1.5" d="M40.42 30.3083 40.4169 35.3954C40.4132 36.8115 44.182 37.9614 48.8317 37.9636 53.4819 37.9658 57.252 36.8191 57.2503 35.4028L57.2535 30.3157C57.2498 31.7312 53.4826 32.8768 48.8349 32.8745 44.1878 32.8723 40.4207 31.7236 40.42 30.3083ZM23.5867 24.3401C23.5864 25.0199 22.6994 25.6715 21.1208 26.1515 19.5422 26.6315 17.4013 26.9006 15.1691 26.8996 12.9369 26.8987 10.7963 26.6277 9.21806 26.1463 7.63984 25.6649 6.75341 25.0125 6.75366 24.3327 6.75393 23.6529 7.64085 23.0013 9.21944 22.5213 10.798 22.0413 12.939 21.7722 15.1712 21.7731 17.4034 21.7741 19.5441 22.0451 21.1223 22.5265 22.7005 23.0079 23.587 23.6603 23.5867 24.3401ZM32.0049 2.75V6.00001M22.5624 4.59558 24.1972 7.40446M41.4474 4.59558 39.8125 7.40446M52.1562 14.5589V16.0625M52.1562 20.1687V21.6723M55.7129 18.1156H54.2092M50.1032 18.1156H48.5995M10.3068 10.0001V11.5037M10.3068 15.6099V17.1135M13.8635 13.5568H12.3599M8.25359 13.5568H6.74988"></path>
</svg>
